<svg id="svg" version="1.1" xmlns="http://www.w3.org/2000/svg" xmlns:xlink="http://www.w3.org/1999/xlink" width="400" height="554.4186046511628" viewBox="0, 0, 400,554.4186046511628"><g id="svgg"><path id="path0" d="M12.403 17.984 C 11.721 18.667,11.163 135.876,11.163 278.450 L 11.163 537.674 17.674 537.674 L 24.186 537.674 24.392 315.814 C 24.624 65.215,23.614 75.187,39.041 171.163 C 41.697 187.687,58.162 272.486,58.879 273.333 C 60.672 275.453,90.440 127.481,93.094 103.256 C 93.766 97.116,94.444 192.349,94.600 314.884 L 94.884 537.674 101.402 537.674 L 107.920 537.674 107.448 277.674 L 106.977 17.674 101.395 17.674 C 96.367 17.674,95.757 18.319,95.237 24.186 C 94.648 30.842,84.863 82.767,69.825 159.035 C 65.189 182.551,61.395 203.439,61.395 205.454 C 61.395 215.428,57.606 202.507,52.158 173.953 C 48.838 156.558,43.698 129.971,40.736 114.870 C 37.773 99.769,35.349 84.981,35.349 82.006 C 35.349 75.835,24.935 21.321,23.229 18.561 C 21.958 16.505,14.291 16.097,12.403 17.984 M139.554 94.419 C 139.591 244.395,149.509 281.104,192.156 289.104 C 203.703 291.270,202.573 280.394,190.947 277.466 C 163.685 270.601,150.703 226.281,150.699 140.059 L 150.698 106.165 172.558 105.640 L 194.419 105.116 195.002 99.070 L 195.585 93.023 173.141 93.023 L 150.698 93.023 150.698 61.395 L 150.698 29.767 174.884 29.767 L 199.070 29.767 199.070 23.256 L 199.070 16.744 169.302 16.744 L 139.535 16.744 139.554 94.419 M235.294 19.022 C 234.797 20.327,234.605 102.605,234.869 201.860 L 235.349 382.326 265.116 382.326 L 294.884 382.326 295.467 376.279 L 296.050 370.233 271.746 370.233 L 247.442 370.233 247.442 238.140 L 247.442 106.047 268.837 106.047 L 290.233 106.047 290.233 99.535 L 290.233 93.023 268.837 93.023 L 247.442 93.023 247.442 61.395 L 247.442 29.767 271.746 29.767 L 296.050 29.767 295.467 23.721 L 294.884 17.674 265.541 17.162 C 243.089 16.770,235.986 17.206,235.294 19.022 M323.721 23.256 L 323.721 29.767 337.674 29.767 L 351.628 29.767 351.628 181.395 L 351.628 333.023 358.140 333.023 L 364.651 333.023 364.651 181.395 L 364.651 29.767 378.605 29.767 L 392.558 29.767 392.558 23.256 L 392.558 16.744 358.140 16.744 L 323.721 16.744 323.721 23.256 M141.395 326.512 L 141.395 333.023 170.233 333.023 L 199.070 333.023 199.070 326.512 L 199.070 320.000 170.233 320.000 L 141.395 320.000 141.395 326.512 M340.219 387.537 C 328.317 401.043,311.276 420.465,302.352 430.698 C 293.428 440.930,283.419 451.814,280.109 454.884 C 276.800 457.953,270.866 464.651,266.922 469.767 C 257.767 481.644,248.967 491.581,228.547 513.098 C 207.083 535.715,206.030 537.674,215.348 537.674 C 222.425 537.674,241.198 519.598,271.379 483.723 L 277.641 476.279 314.634 476.279 L 351.628 476.279 351.628 506.977 L 351.628 537.674 358.140 537.674 L 364.651 537.674 364.651 450.233 C 364.651 402.140,364.023 362.834,363.256 362.886 C 362.488 362.939,352.122 374.032,340.219 387.537 M163.721 453.953 L 163.721 537.674 170.233 537.674 L 176.744 537.674 176.744 453.953 L 176.744 370.233 170.233 370.233 L 163.721 370.233 163.721 453.953 M351.003 462.640 C 350.613 463.031,336.577 463.120,319.814 462.838 L 289.335 462.326 302.082 449.302 C 309.093 442.140,318.042 431.979,321.969 426.723 C 325.895 421.467,333.966 411.918,339.903 405.503 L 350.698 393.840 351.206 427.885 C 351.485 446.609,351.394 462.249,351.003 462.640 " stroke="none" fill="#000000" fill-rule="evenodd"></path></g></svg>